<mxfile host="app.diagrams.net" modified="2024-03-10T17:36:16.223Z" agent="Mozilla/5.0 (Windows NT 10.0; Win64; x64) AppleWebKit/537.36 (KHTML, like Gecko) Chrome/122.0.0.0 Safari/537.36 Edg/122.0.0.0" etag="qv1b6BkY4pChu0dBwHqv" version="24.0.1" type="github">
  <diagram name="Page-1" id="fHMhncR5wRFy4MNFQFWF">
    <mxGraphModel dx="2760" dy="1854" grid="1" gridSize="10" guides="1" tooltips="1" connect="1" arrows="0" fold="1" page="1" pageScale="1" pageWidth="827" pageHeight="1169" math="0" shadow="0">
      <root>
        <mxCell id="0" />
        <mxCell id="1" parent="0" />
        <mxCell id="_vp2LtuRozF6I3-z_24L-39" value="&lt;h2&gt;intervention&lt;/h2&gt;" style="swimlane;fontStyle=0;childLayout=stackLayout;horizontal=1;startSize=40;horizontalStack=0;resizeParent=1;resizeParentMax=0;resizeLast=0;collapsible=1;marginBottom=0;whiteSpace=wrap;html=1;" parent="1" vertex="1">
          <mxGeometry x="100" y="158" width="140" height="160" as="geometry">
            <mxRectangle x="630" y="220" width="140" height="60" as="alternateBounds" />
          </mxGeometry>
        </mxCell>
        <mxCell id="_vp2LtuRozF6I3-z_24L-41" value="&lt;u&gt;num_int&lt;/u&gt;" style="text;strokeColor=none;fillColor=none;align=left;verticalAlign=middle;spacingLeft=4;spacingRight=4;overflow=hidden;points=[[0,0.5],[1,0.5]];portConstraint=eastwest;rotatable=0;whiteSpace=wrap;html=1;" parent="_vp2LtuRozF6I3-z_24L-39" vertex="1">
          <mxGeometry y="40" width="140" height="30" as="geometry" />
        </mxCell>
        <mxCell id="_vp2LtuRozF6I3-z_24L-42" value="nat_int" style="text;strokeColor=none;fillColor=none;align=left;verticalAlign=middle;spacingLeft=4;spacingRight=4;overflow=hidden;points=[[0,0.5],[1,0.5]];portConstraint=eastwest;rotatable=0;whiteSpace=wrap;html=1;" parent="_vp2LtuRozF6I3-z_24L-39" vertex="1">
          <mxGeometry y="70" width="140" height="30" as="geometry" />
        </mxCell>
        <mxCell id="2ZgAqoRttnUlPIWn56Kl-49" value="des_int" style="text;strokeColor=none;fillColor=none;align=left;verticalAlign=middle;spacingLeft=4;spacingRight=4;overflow=hidden;points=[[0,0.5],[1,0.5]];portConstraint=eastwest;rotatable=0;whiteSpace=wrap;html=1;" parent="_vp2LtuRozF6I3-z_24L-39" vertex="1">
          <mxGeometry y="100" width="140" height="30" as="geometry" />
        </mxCell>
        <mxCell id="2ZgAqoRttnUlPIWn56Kl-50" value="obs_ont" style="text;strokeColor=none;fillColor=none;align=left;verticalAlign=middle;spacingLeft=4;spacingRight=4;overflow=hidden;points=[[0,0.5],[1,0.5]];portConstraint=eastwest;rotatable=0;whiteSpace=wrap;html=1;" parent="_vp2LtuRozF6I3-z_24L-39" vertex="1">
          <mxGeometry y="130" width="140" height="30" as="geometry" />
        </mxCell>
        <mxCell id="_vp2LtuRozF6I3-z_24L-50" value="&lt;h2&gt;type_equipement&lt;/h2&gt;" style="swimlane;fontStyle=0;childLayout=stackLayout;horizontal=1;startSize=40;horizontalStack=0;resizeParent=1;resizeParentMax=0;resizeLast=0;collapsible=1;marginBottom=0;whiteSpace=wrap;html=1;" parent="1" vertex="1">
          <mxGeometry x="-981" y="-20" width="166" height="100" as="geometry">
            <mxRectangle x="20" y="-170" width="140" height="60" as="alternateBounds" />
          </mxGeometry>
        </mxCell>
        <mxCell id="_vp2LtuRozF6I3-z_24L-51" value="&lt;u&gt;num_t_eqt&lt;/u&gt;" style="text;strokeColor=none;fillColor=none;align=left;verticalAlign=middle;spacingLeft=4;spacingRight=4;overflow=hidden;points=[[0,0.5],[1,0.5]];portConstraint=eastwest;rotatable=0;whiteSpace=wrap;html=1;" parent="_vp2LtuRozF6I3-z_24L-50" vertex="1">
          <mxGeometry y="40" width="166" height="30" as="geometry" />
        </mxCell>
        <mxCell id="_vp2LtuRozF6I3-z_24L-52" value="lib_t_eqt" style="text;strokeColor=none;fillColor=none;align=left;verticalAlign=middle;spacingLeft=4;spacingRight=4;overflow=hidden;points=[[0,0.5],[1,0.5]];portConstraint=eastwest;rotatable=0;whiteSpace=wrap;html=1;" parent="_vp2LtuRozF6I3-z_24L-50" vertex="1">
          <mxGeometry y="70" width="166" height="30" as="geometry" />
        </mxCell>
        <mxCell id="_vp2LtuRozF6I3-z_24L-53" value="&lt;h2&gt;sous-direction&lt;/h2&gt;" style="swimlane;fontStyle=0;childLayout=stackLayout;horizontal=1;startSize=30;horizontalStack=0;resizeParent=1;resizeParentMax=0;resizeLast=0;collapsible=1;marginBottom=0;whiteSpace=wrap;html=1;" parent="1" vertex="1">
          <mxGeometry x="-553" y="-634" width="140" height="90" as="geometry">
            <mxRectangle x="-553" y="460" width="140" height="60" as="alternateBounds" />
          </mxGeometry>
        </mxCell>
        <mxCell id="_vp2LtuRozF6I3-z_24L-54" value="&lt;u&gt;num_sd&lt;/u&gt;" style="text;strokeColor=none;fillColor=none;align=left;verticalAlign=middle;spacingLeft=4;spacingRight=4;overflow=hidden;points=[[0,0.5],[1,0.5]];portConstraint=eastwest;rotatable=0;whiteSpace=wrap;html=1;" parent="_vp2LtuRozF6I3-z_24L-53" vertex="1">
          <mxGeometry y="30" width="140" height="30" as="geometry" />
        </mxCell>
        <mxCell id="_vp2LtuRozF6I3-z_24L-55" value="lib_ sd" style="text;strokeColor=none;fillColor=none;align=left;verticalAlign=middle;spacingLeft=4;spacingRight=4;overflow=hidden;points=[[0,0.5],[1,0.5]];portConstraint=eastwest;rotatable=0;whiteSpace=wrap;html=1;" parent="_vp2LtuRozF6I3-z_24L-53" vertex="1">
          <mxGeometry y="60" width="140" height="30" as="geometry" />
        </mxCell>
        <mxCell id="_vp2LtuRozF6I3-z_24L-56" value="&lt;h2&gt;equipement&lt;/h2&gt;" style="swimlane;fontStyle=0;childLayout=stackLayout;horizontal=1;startSize=25;horizontalStack=0;resizeParent=1;resizeParentMax=0;resizeLast=0;collapsible=1;marginBottom=0;whiteSpace=wrap;html=1;" parent="1" vertex="1">
          <mxGeometry x="-370" y="-20" width="160" height="145" as="geometry">
            <mxRectangle x="20" y="-200" width="140" height="60" as="alternateBounds" />
          </mxGeometry>
        </mxCell>
        <mxCell id="_vp2LtuRozF6I3-z_24L-57" value="&lt;u&gt;code equip&lt;/u&gt;" style="text;strokeColor=none;fillColor=none;align=left;verticalAlign=middle;spacingLeft=4;spacingRight=4;overflow=hidden;points=[[0,0.5],[1,0.5]];portConstraint=eastwest;rotatable=0;whiteSpace=wrap;html=1;" parent="_vp2LtuRozF6I3-z_24L-56" vertex="1">
          <mxGeometry y="25" width="160" height="30" as="geometry" />
        </mxCell>
        <mxCell id="_vp2LtuRozF6I3-z_24L-58" value="date_m_s" style="text;strokeColor=none;fillColor=none;align=left;verticalAlign=middle;spacingLeft=4;spacingRight=4;overflow=hidden;points=[[0,0.5],[1,0.5]];portConstraint=eastwest;rotatable=0;whiteSpace=wrap;html=1;" parent="_vp2LtuRozF6I3-z_24L-56" vertex="1">
          <mxGeometry y="55" width="160" height="30" as="geometry" />
        </mxCell>
        <mxCell id="_vp2LtuRozF6I3-z_24L-68" value="nom_eqt" style="text;strokeColor=none;fillColor=none;align=left;verticalAlign=middle;spacingLeft=4;spacingRight=4;overflow=hidden;points=[[0,0.5],[1,0.5]];portConstraint=eastwest;rotatable=0;whiteSpace=wrap;html=1;" parent="_vp2LtuRozF6I3-z_24L-56" vertex="1">
          <mxGeometry y="85" width="160" height="30" as="geometry" />
        </mxCell>
        <mxCell id="_vp2LtuRozF6I3-z_24L-69" value="caracteristique" style="text;strokeColor=none;fillColor=none;align=left;verticalAlign=middle;spacingLeft=4;spacingRight=4;overflow=hidden;points=[[0,0.5],[1,0.5]];portConstraint=eastwest;rotatable=0;whiteSpace=wrap;html=1;" parent="_vp2LtuRozF6I3-z_24L-56" vertex="1">
          <mxGeometry y="115" width="160" height="30" as="geometry" />
        </mxCell>
        <mxCell id="_vp2LtuRozF6I3-z_24L-59" value="&lt;h2&gt;utilisateur&lt;/h2&gt;" style="swimlane;fontStyle=0;childLayout=stackLayout;horizontal=1;startSize=30;horizontalStack=0;resizeParent=1;resizeParentMax=0;resizeLast=0;collapsible=1;marginBottom=0;whiteSpace=wrap;html=1;" parent="1" vertex="1">
          <mxGeometry x="820" y="-726" width="180" height="180" as="geometry">
            <mxRectangle x="1270" y="-200" width="140" height="60" as="alternateBounds" />
          </mxGeometry>
        </mxCell>
        <mxCell id="_vp2LtuRozF6I3-z_24L-60" value="&lt;u&gt;matr_utl&lt;/u&gt;" style="text;strokeColor=none;fillColor=none;align=left;verticalAlign=middle;spacingLeft=4;spacingRight=4;overflow=hidden;points=[[0,0.5],[1,0.5]];portConstraint=eastwest;rotatable=0;whiteSpace=wrap;html=1;" parent="_vp2LtuRozF6I3-z_24L-59" vertex="1">
          <mxGeometry y="30" width="180" height="30" as="geometry" />
        </mxCell>
        <mxCell id="_vp2LtuRozF6I3-z_24L-61" value="nom_utl" style="text;strokeColor=none;fillColor=none;align=left;verticalAlign=middle;spacingLeft=4;spacingRight=4;overflow=hidden;points=[[0,0.5],[1,0.5]];portConstraint=eastwest;rotatable=0;whiteSpace=wrap;html=1;" parent="_vp2LtuRozF6I3-z_24L-59" vertex="1">
          <mxGeometry y="60" width="180" height="30" as="geometry" />
        </mxCell>
        <mxCell id="_vp2LtuRozF6I3-z_24L-67" value="pre_utl" style="text;strokeColor=none;fillColor=none;align=left;verticalAlign=middle;spacingLeft=4;spacingRight=4;overflow=hidden;points=[[0,0.5],[1,0.5]];portConstraint=eastwest;rotatable=0;whiteSpace=wrap;html=1;" parent="_vp2LtuRozF6I3-z_24L-59" vertex="1">
          <mxGeometry y="90" width="180" height="30" as="geometry" />
        </mxCell>
        <mxCell id="2ZgAqoRttnUlPIWn56Kl-72" value="tel_utl" style="text;strokeColor=none;fillColor=none;align=left;verticalAlign=middle;spacingLeft=4;spacingRight=4;overflow=hidden;points=[[0,0.5],[1,0.5]];portConstraint=eastwest;rotatable=0;whiteSpace=wrap;html=1;" parent="_vp2LtuRozF6I3-z_24L-59" vertex="1">
          <mxGeometry y="120" width="180" height="30" as="geometry" />
        </mxCell>
        <mxCell id="2ZgAqoRttnUlPIWn56Kl-73" value="email_utl" style="text;strokeColor=none;fillColor=none;align=left;verticalAlign=middle;spacingLeft=4;spacingRight=4;overflow=hidden;points=[[0,0.5],[1,0.5]];portConstraint=eastwest;rotatable=0;whiteSpace=wrap;html=1;" parent="_vp2LtuRozF6I3-z_24L-59" vertex="1">
          <mxGeometry y="150" width="180" height="30" as="geometry" />
        </mxCell>
        <mxCell id="_vp2LtuRozF6I3-z_24L-115" value="&lt;h2&gt;emprunt&lt;/h2&gt;" style="swimlane;fontStyle=0;childLayout=stackLayout;horizontal=1;startSize=24;horizontalStack=0;resizeParent=1;resizeParentMax=0;resizeLast=0;collapsible=1;marginBottom=0;whiteSpace=wrap;html=1;" parent="1" vertex="1">
          <mxGeometry x="135" y="-220" width="140" height="84" as="geometry">
            <mxRectangle x="687" y="-450" width="140" height="60" as="alternateBounds" />
          </mxGeometry>
        </mxCell>
        <mxCell id="_vp2LtuRozF6I3-z_24L-116" value="&lt;u&gt;num_empr&lt;/u&gt;" style="text;strokeColor=none;fillColor=none;align=left;verticalAlign=middle;spacingLeft=4;spacingRight=4;overflow=hidden;points=[[0,0.5],[1,0.5]];portConstraint=eastwest;rotatable=0;whiteSpace=wrap;html=1;" parent="_vp2LtuRozF6I3-z_24L-115" vertex="1">
          <mxGeometry y="24" width="140" height="30" as="geometry" />
        </mxCell>
        <mxCell id="_vp2LtuRozF6I3-z_24L-117" value="lib_empr" style="text;strokeColor=none;fillColor=none;align=left;verticalAlign=middle;spacingLeft=4;spacingRight=4;overflow=hidden;points=[[0,0.5],[1,0.5]];portConstraint=eastwest;rotatable=0;whiteSpace=wrap;html=1;" parent="_vp2LtuRozF6I3-z_24L-115" vertex="1">
          <mxGeometry y="54" width="140" height="30" as="geometry" />
        </mxCell>
        <mxCell id="2ZgAqoRttnUlPIWn56Kl-3" value="&lt;h2&gt;Etat&lt;/h2&gt;" style="swimlane;fontStyle=0;childLayout=stackLayout;horizontal=1;startSize=30;horizontalStack=0;resizeParent=1;resizeParentMax=0;resizeLast=0;collapsible=1;marginBottom=0;whiteSpace=wrap;html=1;" parent="1" vertex="1">
          <mxGeometry x="-635" y="520" width="140" height="90" as="geometry">
            <mxRectangle x="430" y="-190" width="140" height="60" as="alternateBounds" />
          </mxGeometry>
        </mxCell>
        <mxCell id="2ZgAqoRttnUlPIWn56Kl-4" value="&lt;u&gt;num_etat&lt;/u&gt;" style="text;strokeColor=none;fillColor=none;align=left;verticalAlign=middle;spacingLeft=4;spacingRight=4;overflow=hidden;points=[[0,0.5],[1,0.5]];portConstraint=eastwest;rotatable=0;whiteSpace=wrap;html=1;" parent="2ZgAqoRttnUlPIWn56Kl-3" vertex="1">
          <mxGeometry y="30" width="140" height="30" as="geometry" />
        </mxCell>
        <mxCell id="2ZgAqoRttnUlPIWn56Kl-5" value="nom_etat" style="text;strokeColor=none;fillColor=none;align=left;verticalAlign=middle;spacingLeft=4;spacingRight=4;overflow=hidden;points=[[0,0.5],[1,0.5]];portConstraint=eastwest;rotatable=0;whiteSpace=wrap;html=1;" parent="2ZgAqoRttnUlPIWn56Kl-3" vertex="1">
          <mxGeometry y="60" width="140" height="30" as="geometry" />
        </mxCell>
        <mxCell id="2ZgAqoRttnUlPIWn56Kl-16" value="&lt;h2&gt;Reservation&lt;/h2&gt;" style="swimlane;fontStyle=0;childLayout=stackLayout;horizontal=1;startSize=30;horizontalStack=0;resizeParent=1;resizeParentMax=0;resizeLast=0;collapsible=1;marginBottom=0;whiteSpace=wrap;html=1;" parent="1" vertex="1">
          <mxGeometry x="130" y="-1080" width="140" height="90" as="geometry">
            <mxRectangle x="130" y="-1080" width="140" height="60" as="alternateBounds" />
          </mxGeometry>
        </mxCell>
        <mxCell id="2ZgAqoRttnUlPIWn56Kl-17" value="&lt;u&gt;num_res&lt;/u&gt;" style="text;strokeColor=none;fillColor=none;align=left;verticalAlign=middle;spacingLeft=4;spacingRight=4;overflow=hidden;points=[[0,0.5],[1,0.5]];portConstraint=eastwest;rotatable=0;whiteSpace=wrap;html=1;" parent="2ZgAqoRttnUlPIWn56Kl-16" vertex="1">
          <mxGeometry y="30" width="140" height="30" as="geometry" />
        </mxCell>
        <mxCell id="2ZgAqoRttnUlPIWn56Kl-18" value="lib_res" style="text;strokeColor=none;fillColor=none;align=left;verticalAlign=middle;spacingLeft=4;spacingRight=4;overflow=hidden;points=[[0,0.5],[1,0.5]];portConstraint=eastwest;rotatable=0;whiteSpace=wrap;html=1;" parent="2ZgAqoRttnUlPIWn56Kl-16" vertex="1">
          <mxGeometry y="60" width="140" height="30" as="geometry" />
        </mxCell>
        <mxCell id="2ZgAqoRttnUlPIWn56Kl-27" value="&lt;h2&gt;Technicien&lt;/h2&gt;" style="swimlane;fontStyle=0;childLayout=stackLayout;horizontal=1;startSize=30;horizontalStack=0;resizeParent=1;resizeParentMax=0;resizeLast=0;collapsible=1;marginBottom=0;whiteSpace=wrap;html=1;" parent="1" vertex="1">
          <mxGeometry x="935" y="240" width="140" height="180" as="geometry">
            <mxRectangle x="430" y="-190" width="140" height="60" as="alternateBounds" />
          </mxGeometry>
        </mxCell>
        <mxCell id="2ZgAqoRttnUlPIWn56Kl-28" value="&lt;u&gt;mat_tech&lt;/u&gt;" style="text;strokeColor=none;fillColor=none;align=left;verticalAlign=middle;spacingLeft=4;spacingRight=4;overflow=hidden;points=[[0,0.5],[1,0.5]];portConstraint=eastwest;rotatable=0;whiteSpace=wrap;html=1;" parent="2ZgAqoRttnUlPIWn56Kl-27" vertex="1">
          <mxGeometry y="30" width="140" height="30" as="geometry" />
        </mxCell>
        <mxCell id="2ZgAqoRttnUlPIWn56Kl-29" value="nom_tech" style="text;strokeColor=none;fillColor=none;align=left;verticalAlign=middle;spacingLeft=4;spacingRight=4;overflow=hidden;points=[[0,0.5],[1,0.5]];portConstraint=eastwest;rotatable=0;whiteSpace=wrap;html=1;" parent="2ZgAqoRttnUlPIWn56Kl-27" vertex="1">
          <mxGeometry y="60" width="140" height="30" as="geometry" />
        </mxCell>
        <mxCell id="2ZgAqoRttnUlPIWn56Kl-30" value="pre_tech" style="text;strokeColor=none;fillColor=none;align=left;verticalAlign=middle;spacingLeft=4;spacingRight=4;overflow=hidden;points=[[0,0.5],[1,0.5]];portConstraint=eastwest;rotatable=0;whiteSpace=wrap;html=1;" parent="2ZgAqoRttnUlPIWn56Kl-27" vertex="1">
          <mxGeometry y="90" width="140" height="30" as="geometry" />
        </mxCell>
        <mxCell id="2ZgAqoRttnUlPIWn56Kl-32" value="tel_tech" style="text;strokeColor=none;fillColor=none;align=left;verticalAlign=middle;spacingLeft=4;spacingRight=4;overflow=hidden;points=[[0,0.5],[1,0.5]];portConstraint=eastwest;rotatable=0;whiteSpace=wrap;html=1;" parent="2ZgAqoRttnUlPIWn56Kl-27" vertex="1">
          <mxGeometry y="120" width="140" height="30" as="geometry" />
        </mxCell>
        <mxCell id="2ZgAqoRttnUlPIWn56Kl-33" value="email_tech" style="text;strokeColor=none;fillColor=none;align=left;verticalAlign=middle;spacingLeft=4;spacingRight=4;overflow=hidden;points=[[0,0.5],[1,0.5]];portConstraint=eastwest;rotatable=0;whiteSpace=wrap;html=1;" parent="2ZgAqoRttnUlPIWn56Kl-27" vertex="1">
          <mxGeometry y="150" width="140" height="30" as="geometry" />
        </mxCell>
        <mxCell id="2ZgAqoRttnUlPIWn56Kl-61" value="&lt;h2&gt;Type_intervention&lt;/h2&gt;" style="swimlane;fontStyle=0;childLayout=stackLayout;horizontal=1;startSize=30;horizontalStack=0;resizeParent=1;resizeParentMax=0;resizeLast=0;collapsible=1;marginBottom=0;whiteSpace=wrap;html=1;" parent="1" vertex="1">
          <mxGeometry x="520" y="490" width="167" height="90" as="geometry">
            <mxRectangle x="740" y="620" width="170" height="60" as="alternateBounds" />
          </mxGeometry>
        </mxCell>
        <mxCell id="2ZgAqoRttnUlPIWn56Kl-63" value="&lt;u&gt;Num_t_init&lt;/u&gt;" style="text;strokeColor=none;fillColor=none;align=left;verticalAlign=middle;spacingLeft=4;spacingRight=4;overflow=hidden;points=[[0,0.5],[1,0.5]];portConstraint=eastwest;rotatable=0;whiteSpace=wrap;html=1;" parent="2ZgAqoRttnUlPIWn56Kl-61" vertex="1">
          <mxGeometry y="30" width="167" height="30" as="geometry" />
        </mxCell>
        <mxCell id="2ZgAqoRttnUlPIWn56Kl-64" value="Lib_t_int" style="text;strokeColor=none;fillColor=none;align=left;verticalAlign=middle;spacingLeft=4;spacingRight=4;overflow=hidden;points=[[0,0.5],[1,0.5]];portConstraint=eastwest;rotatable=0;whiteSpace=wrap;html=1;" parent="2ZgAqoRttnUlPIWn56Kl-61" vertex="1">
          <mxGeometry y="60" width="167" height="30" as="geometry" />
        </mxCell>
        <mxCell id="2ZgAqoRttnUlPIWn56Kl-102" value="&lt;font size=&quot;3&quot;&gt;&lt;b&gt;faire&lt;/b&gt;&lt;/font&gt;" style="ellipse;whiteSpace=wrap;html=1;" parent="1" vertex="1">
          <mxGeometry x="500" y="-980" width="140" height="70" as="geometry" />
        </mxCell>
        <mxCell id="2ZgAqoRttnUlPIWn56Kl-100" value="&lt;font size=&quot;3&quot;&gt;&lt;b&gt;disposer&lt;/b&gt;&lt;/font&gt;" style="ellipse;whiteSpace=wrap;html=1;" parent="1" vertex="1">
          <mxGeometry x="827" y="-35" width="140" height="70" as="geometry" />
        </mxCell>
        <mxCell id="2ZgAqoRttnUlPIWn56Kl-91" value="&lt;font size=&quot;3&quot;&gt;&lt;b&gt;lier&lt;/b&gt;&lt;/font&gt;" style="ellipse;whiteSpace=wrap;html=1;" parent="1" vertex="1">
          <mxGeometry x="340" y="360" width="140" height="70" as="geometry" />
        </mxCell>
        <mxCell id="2ZgAqoRttnUlPIWn56Kl-143" value="&lt;h2&gt;Administrateur&lt;/h2&gt;" style="swimlane;fontStyle=0;childLayout=stackLayout;horizontal=1;startSize=24;horizontalStack=0;resizeParent=1;resizeParentMax=0;resizeLast=0;collapsible=1;marginBottom=0;whiteSpace=wrap;html=1;" parent="1" vertex="1">
          <mxGeometry x="135" y="-720" width="160" height="204" as="geometry">
            <mxRectangle x="135" y="-720" width="140" height="60" as="alternateBounds" />
          </mxGeometry>
        </mxCell>
        <mxCell id="2ZgAqoRttnUlPIWn56Kl-144" value="&lt;u style=&quot;border-color: var(--border-color);&quot;&gt;matr_adm&lt;/u&gt;" style="text;strokeColor=none;fillColor=none;align=left;verticalAlign=middle;spacingLeft=4;spacingRight=4;overflow=hidden;points=[[0,0.5],[1,0.5]];portConstraint=eastwest;rotatable=0;whiteSpace=wrap;html=1;" parent="2ZgAqoRttnUlPIWn56Kl-143" vertex="1">
          <mxGeometry y="24" width="160" height="30" as="geometry" />
        </mxCell>
        <mxCell id="2ZgAqoRttnUlPIWn56Kl-145" value="nom_adm" style="text;strokeColor=none;fillColor=none;align=left;verticalAlign=middle;spacingLeft=4;spacingRight=4;overflow=hidden;points=[[0,0.5],[1,0.5]];portConstraint=eastwest;rotatable=0;whiteSpace=wrap;html=1;" parent="2ZgAqoRttnUlPIWn56Kl-143" vertex="1">
          <mxGeometry y="54" width="160" height="30" as="geometry" />
        </mxCell>
        <mxCell id="nu3UtHRdyJgBSU6vwzOk-18" value="pre_adm" style="text;strokeColor=none;fillColor=none;align=left;verticalAlign=middle;spacingLeft=4;spacingRight=4;overflow=hidden;points=[[0,0.5],[1,0.5]];portConstraint=eastwest;rotatable=0;whiteSpace=wrap;html=1;" parent="2ZgAqoRttnUlPIWn56Kl-143" vertex="1">
          <mxGeometry y="84" width="160" height="30" as="geometry" />
        </mxCell>
        <mxCell id="nu3UtHRdyJgBSU6vwzOk-19" value="tel_adm" style="text;strokeColor=none;fillColor=none;align=left;verticalAlign=middle;spacingLeft=4;spacingRight=4;overflow=hidden;points=[[0,0.5],[1,0.5]];portConstraint=eastwest;rotatable=0;whiteSpace=wrap;html=1;" parent="2ZgAqoRttnUlPIWn56Kl-143" vertex="1">
          <mxGeometry y="114" width="160" height="30" as="geometry" />
        </mxCell>
        <mxCell id="nu3UtHRdyJgBSU6vwzOk-20" value="email_adm" style="text;strokeColor=none;fillColor=none;align=left;verticalAlign=middle;spacingLeft=4;spacingRight=4;overflow=hidden;points=[[0,0.5],[1,0.5]];portConstraint=eastwest;rotatable=0;whiteSpace=wrap;html=1;" parent="2ZgAqoRttnUlPIWn56Kl-143" vertex="1">
          <mxGeometry y="144" width="160" height="30" as="geometry" />
        </mxCell>
        <mxCell id="nu3UtHRdyJgBSU6vwzOk-21" value="pass_adm" style="text;strokeColor=none;fillColor=none;align=left;verticalAlign=middle;spacingLeft=4;spacingRight=4;overflow=hidden;points=[[0,0.5],[1,0.5]];portConstraint=eastwest;rotatable=0;whiteSpace=wrap;html=1;" parent="2ZgAqoRttnUlPIWn56Kl-143" vertex="1">
          <mxGeometry y="174" width="160" height="30" as="geometry" />
        </mxCell>
        <mxCell id="cgGnD4WlNKiAV_FmcP1Z-3" value="&lt;h2&gt;Logiciel&lt;/h2&gt;" style="swimlane;fontStyle=0;childLayout=stackLayout;horizontal=1;startSize=30;horizontalStack=0;resizeParent=1;resizeParentMax=0;resizeLast=0;collapsible=1;marginBottom=0;whiteSpace=wrap;html=1;" parent="1" vertex="1">
          <mxGeometry x="-360" y="640" width="140" height="180" as="geometry">
            <mxRectangle x="430" y="-190" width="140" height="60" as="alternateBounds" />
          </mxGeometry>
        </mxCell>
        <mxCell id="cgGnD4WlNKiAV_FmcP1Z-4" value="&lt;u&gt;num_log&lt;/u&gt;" style="text;strokeColor=none;fillColor=none;align=left;verticalAlign=middle;spacingLeft=4;spacingRight=4;overflow=hidden;points=[[0,0.5],[1,0.5]];portConstraint=eastwest;rotatable=0;whiteSpace=wrap;html=1;" parent="cgGnD4WlNKiAV_FmcP1Z-3" vertex="1">
          <mxGeometry y="30" width="140" height="30" as="geometry" />
        </mxCell>
        <mxCell id="cgGnD4WlNKiAV_FmcP1Z-5" value="nom_log" style="text;strokeColor=none;fillColor=none;align=left;verticalAlign=middle;spacingLeft=4;spacingRight=4;overflow=hidden;points=[[0,0.5],[1,0.5]];portConstraint=eastwest;rotatable=0;whiteSpace=wrap;html=1;" parent="cgGnD4WlNKiAV_FmcP1Z-3" vertex="1">
          <mxGeometry y="60" width="140" height="30" as="geometry" />
        </mxCell>
        <mxCell id="cgGnD4WlNKiAV_FmcP1Z-6" value="licence" style="text;strokeColor=none;fillColor=none;align=left;verticalAlign=middle;spacingLeft=4;spacingRight=4;overflow=hidden;points=[[0,0.5],[1,0.5]];portConstraint=eastwest;rotatable=0;whiteSpace=wrap;html=1;" parent="cgGnD4WlNKiAV_FmcP1Z-3" vertex="1">
          <mxGeometry y="90" width="140" height="30" as="geometry" />
        </mxCell>
        <mxCell id="cgGnD4WlNKiAV_FmcP1Z-8" value="licence_int" style="text;strokeColor=none;fillColor=none;align=left;verticalAlign=middle;spacingLeft=4;spacingRight=4;overflow=hidden;points=[[0,0.5],[1,0.5]];portConstraint=eastwest;rotatable=0;whiteSpace=wrap;html=1;" parent="cgGnD4WlNKiAV_FmcP1Z-3" vertex="1">
          <mxGeometry y="120" width="140" height="30" as="geometry" />
        </mxCell>
        <mxCell id="cgGnD4WlNKiAV_FmcP1Z-9" value="licence_exp" style="text;strokeColor=none;fillColor=none;align=left;verticalAlign=middle;spacingLeft=4;spacingRight=4;overflow=hidden;points=[[0,0.5],[1,0.5]];portConstraint=eastwest;rotatable=0;whiteSpace=wrap;html=1;" parent="cgGnD4WlNKiAV_FmcP1Z-3" vertex="1">
          <mxGeometry y="150" width="140" height="30" as="geometry" />
        </mxCell>
        <mxCell id="cgGnD4WlNKiAV_FmcP1Z-15" value="1,1" style="text;html=1;align=center;verticalAlign=middle;resizable=0;points=[];autosize=1;strokeWidth=0;fontColor=#FF0000;" parent="1" vertex="1">
          <mxGeometry x="-800" y="-280" width="40" height="30" as="geometry" />
        </mxCell>
        <mxCell id="cgGnD4WlNKiAV_FmcP1Z-24" value="0,N" style="text;html=1;align=center;verticalAlign=middle;resizable=0;points=[];autosize=1;strokeColor=none;fillColor=none;fontColor=#FF0000;" parent="1" vertex="1">
          <mxGeometry x="827" y="-770" width="40" height="30" as="geometry" />
        </mxCell>
        <mxCell id="cgGnD4WlNKiAV_FmcP1Z-25" value="1,1" style="text;html=1;align=center;verticalAlign=middle;resizable=0;points=[];autosize=1;strokeColor=none;fillColor=none;fontColor=#FF0000;" parent="1" vertex="1">
          <mxGeometry x="270" y="-1070" width="40" height="30" as="geometry" />
        </mxCell>
        <mxCell id="cgGnD4WlNKiAV_FmcP1Z-26" value="0,N" style="text;html=1;align=center;verticalAlign=middle;resizable=0;points=[];autosize=1;strokeColor=none;fillColor=none;fontColor=#FF0000;" parent="1" vertex="1">
          <mxGeometry x="95" y="-664" width="40" height="30" as="geometry" />
        </mxCell>
        <mxCell id="cgGnD4WlNKiAV_FmcP1Z-27" value="1,1" style="text;html=1;align=center;verticalAlign=middle;resizable=0;points=[];autosize=1;strokeColor=none;fillColor=none;fontColor=#FF0000;" parent="1" vertex="1">
          <mxGeometry x="95" y="-1020" width="40" height="30" as="geometry" />
        </mxCell>
        <mxCell id="cgGnD4WlNKiAV_FmcP1Z-29" value="0,N" style="text;html=1;align=center;verticalAlign=middle;resizable=0;points=[];autosize=1;strokeColor=none;fillColor=none;fontColor=#FF0000;" parent="1" vertex="1">
          <mxGeometry x="880" y="249.58" width="40" height="30" as="geometry" />
        </mxCell>
        <mxCell id="cgGnD4WlNKiAV_FmcP1Z-30" value="1,N" style="text;html=1;align=center;verticalAlign=middle;resizable=0;points=[];autosize=1;strokeColor=none;fillColor=none;fontColor=#FF0000;" parent="1" vertex="1">
          <mxGeometry x="-20" y="-70" width="40" height="30" as="geometry" />
        </mxCell>
        <mxCell id="cgGnD4WlNKiAV_FmcP1Z-32" value="0,N" style="text;html=1;align=center;verticalAlign=middle;resizable=0;points=[];autosize=1;strokeColor=none;fillColor=none;fontColor=#FF0000;" parent="1" vertex="1">
          <mxGeometry x="-600" y="-633" width="40" height="30" as="geometry" />
        </mxCell>
        <mxCell id="cgGnD4WlNKiAV_FmcP1Z-34" value="1,1" style="text;html=1;align=center;verticalAlign=middle;resizable=0;points=[];autosize=1;strokeColor=none;fillColor=none;fontColor=#FF0000;" parent="1" vertex="1">
          <mxGeometry x="-410" y="-70" width="40" height="30" as="geometry" />
        </mxCell>
        <mxCell id="cgGnD4WlNKiAV_FmcP1Z-35" value="0,N" style="text;html=1;align=center;verticalAlign=middle;resizable=0;points=[];autosize=1;strokeColor=none;fillColor=none;fontColor=#FF0000;" parent="1" vertex="1">
          <mxGeometry x="-580" y="-230" width="40" height="30" as="geometry" />
        </mxCell>
        <mxCell id="cgGnD4WlNKiAV_FmcP1Z-37" value="0,N" style="text;html=1;align=center;verticalAlign=middle;resizable=0;points=[];autosize=1;strokeColor=none;fillColor=none;fontColor=#FF0000;" parent="1" vertex="1">
          <mxGeometry x="-220" y="650" width="40" height="30" as="geometry" />
        </mxCell>
        <mxCell id="cgGnD4WlNKiAV_FmcP1Z-40" value="1,N" style="text;html=1;align=center;verticalAlign=middle;resizable=0;points=[];autosize=1;strokeColor=none;fillColor=none;fontColor=#FF0000;" parent="1" vertex="1">
          <mxGeometry x="90" y="-170" width="40" height="30" as="geometry" />
        </mxCell>
        <mxCell id="cgGnD4WlNKiAV_FmcP1Z-41" value="0,N" style="text;html=1;align=center;verticalAlign=middle;resizable=0;points=[];autosize=1;strokeColor=none;fillColor=none;fontColor=#FF0000;" parent="1" vertex="1">
          <mxGeometry x="-330" y="600" width="40" height="30" as="geometry" />
        </mxCell>
        <mxCell id="cgGnD4WlNKiAV_FmcP1Z-42" value="0,N" style="text;html=1;align=center;verticalAlign=middle;resizable=0;points=[];autosize=1;strokeColor=none;fillColor=none;fontColor=#FF0000;" parent="1" vertex="1">
          <mxGeometry x="95" y="-710" width="40" height="30" as="geometry" />
        </mxCell>
        <mxCell id="cgGnD4WlNKiAV_FmcP1Z-43" value="1,1" style="text;html=1;align=center;verticalAlign=middle;resizable=0;points=[];autosize=1;strokeColor=none;fillColor=none;fontColor=#FF0000;" parent="1" vertex="1">
          <mxGeometry x="90" y="-210" width="40" height="30" as="geometry" />
        </mxCell>
        <mxCell id="cgGnD4WlNKiAV_FmcP1Z-44" value="0,N" style="text;html=1;align=center;verticalAlign=middle;resizable=0;points=[];autosize=1;strokeColor=none;fillColor=none;fontColor=#FF0000;" parent="1" vertex="1">
          <mxGeometry x="-570" y="610" width="40" height="30" as="geometry" />
        </mxCell>
        <mxCell id="cgGnD4WlNKiAV_FmcP1Z-45" value="1,1" style="text;html=1;align=center;verticalAlign=middle;resizable=0;points=[];autosize=1;strokeColor=none;fillColor=none;fontColor=#FF0000;" parent="1" vertex="1">
          <mxGeometry x="-450" y="-10" width="40" height="30" as="geometry" />
        </mxCell>
        <mxCell id="cgGnD4WlNKiAV_FmcP1Z-48" value="0,N" style="text;html=1;align=center;verticalAlign=middle;resizable=0;points=[];autosize=1;strokeColor=none;fillColor=none;fontColor=#FF3333;" parent="1" vertex="1">
          <mxGeometry x="-350" y="128" width="40" height="30" as="geometry" />
        </mxCell>
        <mxCell id="cgGnD4WlNKiAV_FmcP1Z-49" value="0,N" style="text;html=1;align=center;verticalAlign=middle;resizable=0;points=[];autosize=1;strokeColor=none;fillColor=none;fontColor=#FF0000;" parent="1" vertex="1">
          <mxGeometry x="470" y="500" width="40" height="30" as="geometry" />
        </mxCell>
        <mxCell id="cgGnD4WlNKiAV_FmcP1Z-50" value="1,1" style="text;html=1;align=center;verticalAlign=middle;resizable=0;points=[];autosize=1;strokeColor=none;fillColor=none;fontColor=#FF0000;" parent="1" vertex="1">
          <mxGeometry x="280" y="-220" width="40" height="30" as="geometry" />
        </mxCell>
        <mxCell id="cgGnD4WlNKiAV_FmcP1Z-51" value="1,N" style="text;html=1;align=center;verticalAlign=middle;resizable=0;points=[];autosize=1;strokeColor=none;fillColor=none;fontColor=#FF0000;" parent="1" vertex="1">
          <mxGeometry x="80" y="-1070" width="40" height="30" as="geometry" />
        </mxCell>
        <mxCell id="cgGnD4WlNKiAV_FmcP1Z-57" value="&lt;h2&gt;Direction&lt;/h2&gt;" style="swimlane;fontStyle=0;childLayout=stackLayout;horizontal=1;startSize=30;horizontalStack=0;resizeParent=1;resizeParentMax=0;resizeLast=0;collapsible=1;marginBottom=0;whiteSpace=wrap;html=1;" parent="1" vertex="1">
          <mxGeometry x="-1160" y="-564" width="140" height="90" as="geometry">
            <mxRectangle x="-553" y="460" width="140" height="60" as="alternateBounds" />
          </mxGeometry>
        </mxCell>
        <mxCell id="cgGnD4WlNKiAV_FmcP1Z-58" value="&lt;u&gt;num_dir&lt;/u&gt;" style="text;strokeColor=none;fillColor=none;align=left;verticalAlign=middle;spacingLeft=4;spacingRight=4;overflow=hidden;points=[[0,0.5],[1,0.5]];portConstraint=eastwest;rotatable=0;whiteSpace=wrap;html=1;" parent="cgGnD4WlNKiAV_FmcP1Z-57" vertex="1">
          <mxGeometry y="30" width="140" height="30" as="geometry" />
        </mxCell>
        <mxCell id="cgGnD4WlNKiAV_FmcP1Z-59" value="lib_dir" style="text;strokeColor=none;fillColor=none;align=left;verticalAlign=middle;spacingLeft=4;spacingRight=4;overflow=hidden;points=[[0,0.5],[1,0.5]];portConstraint=eastwest;rotatable=0;whiteSpace=wrap;html=1;" parent="cgGnD4WlNKiAV_FmcP1Z-57" vertex="1">
          <mxGeometry y="60" width="140" height="30" as="geometry" />
        </mxCell>
        <mxCell id="cgGnD4WlNKiAV_FmcP1Z-70" value="" style="endArrow=none;html=1;rounded=0;exitX=1;exitY=0.5;exitDx=0;exitDy=0;entryX=0.056;entryY=0.978;entryDx=0;entryDy=0;entryPerimeter=0;" parent="1" source="_vp2LtuRozF6I3-z_24L-41" target="NFkFAfJ5zQV4zD1CImH5-58" edge="1">
          <mxGeometry width="50" height="50" relative="1" as="geometry">
            <mxPoint x="380" y="660" as="sourcePoint" />
            <mxPoint x="370.39999999999964" y="600" as="targetPoint" />
            <Array as="points" />
          </mxGeometry>
        </mxCell>
        <mxCell id="cgGnD4WlNKiAV_FmcP1Z-73" value="1,N" style="text;html=1;align=center;verticalAlign=middle;resizable=0;points=[];autosize=1;strokeColor=none;fillColor=none;fontColor=#FF0000;" parent="1" vertex="1">
          <mxGeometry x="-210" y="150" width="40" height="30" as="geometry" />
        </mxCell>
        <mxCell id="cgGnD4WlNKiAV_FmcP1Z-74" value="" style="endArrow=none;html=1;rounded=0;entryX=0.977;entryY=0.133;entryDx=0;entryDy=0;exitX=0;exitY=0.5;exitDx=0;exitDy=0;entryPerimeter=0;" parent="1" source="cgGnD4WlNKiAV_FmcP1Z-4" target="NFkFAfJ5zQV4zD1CImH5-100" edge="1">
          <mxGeometry width="50" height="50" relative="1" as="geometry">
            <mxPoint x="-205" y="700" as="sourcePoint" />
            <mxPoint x="-180.00000000000023" y="620" as="targetPoint" />
          </mxGeometry>
        </mxCell>
        <mxCell id="cgGnD4WlNKiAV_FmcP1Z-75" value="1,N" style="text;html=1;align=center;verticalAlign=middle;resizable=0;points=[];autosize=1;strokeColor=none;fillColor=none;fontColor=#FF0000;" parent="1" vertex="1">
          <mxGeometry x="50" y="360" width="40" height="30" as="geometry" />
        </mxCell>
        <mxCell id="cgGnD4WlNKiAV_FmcP1Z-76" value="1,N" style="text;html=1;align=center;verticalAlign=middle;resizable=0;points=[];autosize=1;strokeColor=none;fillColor=none;fontColor=#FF0000;" parent="1" vertex="1">
          <mxGeometry x="-210" y="-50" width="40" height="30" as="geometry" />
        </mxCell>
        <mxCell id="cgGnD4WlNKiAV_FmcP1Z-77" value="0,N" style="text;html=1;align=center;verticalAlign=middle;resizable=0;points=[];autosize=1;strokeColor=none;fillColor=none;fontColor=#FF0000;" parent="1" vertex="1">
          <mxGeometry x="-815" y="5" width="40" height="30" as="geometry" />
        </mxCell>
        <mxCell id="cgGnD4WlNKiAV_FmcP1Z-78" value="0,N" style="text;html=1;align=center;verticalAlign=middle;resizable=0;points=[];autosize=1;strokeColor=none;fillColor=none;fontColor=#FF0000;" parent="1" vertex="1">
          <mxGeometry x="670" y="280" width="40" height="30" as="geometry" />
        </mxCell>
        <mxCell id="cgGnD4WlNKiAV_FmcP1Z-79" value="1,N" style="text;html=1;align=center;verticalAlign=middle;resizable=0;points=[];autosize=1;strokeColor=none;fillColor=none;fontColor=#FF0000;" parent="1" vertex="1">
          <mxGeometry x="-400" y="650" width="40" height="30" as="geometry" />
        </mxCell>
        <mxCell id="cgGnD4WlNKiAV_FmcP1Z-83" value="&lt;font color=&quot;#ff0000&quot;&gt;1,N&lt;/font&gt;" style="text;html=1;align=center;verticalAlign=middle;resizable=0;points=[];autosize=1;strokeColor=none;fillColor=none;" parent="1" vertex="1">
          <mxGeometry x="-340" y="-65" width="40" height="30" as="geometry" />
        </mxCell>
        <mxCell id="cgGnD4WlNKiAV_FmcP1Z-84" value="0,N" style="text;html=1;align=center;verticalAlign=middle;resizable=0;points=[];autosize=1;strokeColor=none;fillColor=none;fontColor=#FF0000;" parent="1" vertex="1">
          <mxGeometry x="-560" y="480" width="40" height="30" as="geometry" />
        </mxCell>
        <mxCell id="cgGnD4WlNKiAV_FmcP1Z-85" value="&lt;font color=&quot;#ff0000&quot;&gt;1,N&lt;/font&gt;" style="text;html=1;align=center;verticalAlign=middle;resizable=0;points=[];autosize=1;strokeColor=none;fillColor=none;" parent="1" vertex="1">
          <mxGeometry x="985" y="760" width="40" height="30" as="geometry" />
        </mxCell>
        <mxCell id="ZjdlGWBYATQkl55H4jws-10" value="" style="endArrow=none;html=1;rounded=0;exitX=0.5;exitY=0;exitDx=0;exitDy=0;" parent="1" source="NFkFAfJ5zQV4zD1CImH5-93" edge="1">
          <mxGeometry relative="1" as="geometry">
            <mxPoint x="-180.00000000000023" y="90.50000000000023" as="sourcePoint" />
            <mxPoint x="-370" y="20" as="targetPoint" />
            <Array as="points">
              <mxPoint x="-560" y="120" />
            </Array>
          </mxGeometry>
        </mxCell>
        <mxCell id="ZjdlGWBYATQkl55H4jws-11" value="" style="endArrow=none;html=1;rounded=0;entryX=1.018;entryY=0.267;entryDx=0;entryDy=0;exitX=0.5;exitY=1;exitDx=0;exitDy=0;entryPerimeter=0;" parent="1" source="NFkFAfJ5zQV4zD1CImH5-30" target="ZjdlGWBYATQkl55H4jws-13" edge="1">
          <mxGeometry relative="1" as="geometry">
            <mxPoint x="-490" y="-370" as="sourcePoint" />
            <mxPoint x="-370" y="120" as="targetPoint" />
            <Array as="points">
              <mxPoint x="-530" y="-280" />
            </Array>
          </mxGeometry>
        </mxCell>
        <mxCell id="ZjdlGWBYATQkl55H4jws-12" value="&lt;h2&gt;emplacement&lt;/h2&gt;" style="swimlane;fontStyle=0;childLayout=stackLayout;horizontal=1;startSize=40;horizontalStack=0;resizeParent=1;resizeParentMax=0;resizeLast=0;collapsible=1;marginBottom=0;whiteSpace=wrap;html=1;" parent="1" vertex="1">
          <mxGeometry x="-750" y="-290" width="166" height="100" as="geometry">
            <mxRectangle x="20" y="-170" width="140" height="60" as="alternateBounds" />
          </mxGeometry>
        </mxCell>
        <mxCell id="ZjdlGWBYATQkl55H4jws-13" value="&lt;u&gt;num_emp&lt;/u&gt;" style="text;strokeColor=none;fillColor=none;align=left;verticalAlign=middle;spacingLeft=4;spacingRight=4;overflow=hidden;points=[[0,0.5],[1,0.5]];portConstraint=eastwest;rotatable=0;whiteSpace=wrap;html=1;" parent="ZjdlGWBYATQkl55H4jws-12" vertex="1">
          <mxGeometry y="40" width="166" height="30" as="geometry" />
        </mxCell>
        <mxCell id="ZjdlGWBYATQkl55H4jws-14" value="lib_emp" style="text;strokeColor=none;fillColor=none;align=left;verticalAlign=middle;spacingLeft=4;spacingRight=4;overflow=hidden;points=[[0,0.5],[1,0.5]];portConstraint=eastwest;rotatable=0;whiteSpace=wrap;html=1;" parent="ZjdlGWBYATQkl55H4jws-12" vertex="1">
          <mxGeometry y="70" width="166" height="30" as="geometry" />
        </mxCell>
        <mxCell id="ZjdlGWBYATQkl55H4jws-17" value="" style="endArrow=none;html=1;rounded=0;entryX=1;entryY=0.5;entryDx=0;entryDy=0;exitX=0;exitY=0.5;exitDx=0;exitDy=0;" parent="1" source="_vp2LtuRozF6I3-z_24L-57" target="2ZgAqoRttnUlPIWn56Kl-101" edge="1">
          <mxGeometry width="50" height="50" relative="1" as="geometry">
            <mxPoint x="-100" y="-200" as="sourcePoint" />
            <mxPoint x="-50" y="-250" as="targetPoint" />
            <Array as="points" />
          </mxGeometry>
        </mxCell>
        <mxCell id="NFkFAfJ5zQV4zD1CImH5-9" value="" style="endArrow=none;html=1;rounded=0;entryX=0;entryY=0.5;entryDx=0;entryDy=0;exitX=0.5;exitY=0;exitDx=0;exitDy=0;" parent="1" source="NFkFAfJ5zQV4zD1CImH5-47" target="2ZgAqoRttnUlPIWn56Kl-17" edge="1">
          <mxGeometry relative="1" as="geometry">
            <mxPoint x="80" y="-440" as="sourcePoint" />
            <mxPoint x="75" y="-569" as="targetPoint" />
            <Array as="points">
              <mxPoint x="-110" y="-1030" />
            </Array>
          </mxGeometry>
        </mxCell>
        <mxCell id="NFkFAfJ5zQV4zD1CImH5-12" value="" style="endArrow=none;html=1;rounded=0;entryX=0.5;entryY=1;entryDx=0;entryDy=0;exitX=0.375;exitY=0;exitDx=0;exitDy=0;exitPerimeter=0;" parent="1" source="_vp2LtuRozF6I3-z_24L-56" target="NFkFAfJ5zQV4zD1CImH5-46" edge="1">
          <mxGeometry relative="1" as="geometry">
            <mxPoint x="-130" y="-350" as="sourcePoint" />
            <mxPoint x="80" y="-370" as="targetPoint" />
          </mxGeometry>
        </mxCell>
        <mxCell id="NFkFAfJ5zQV4zD1CImH5-13" value="" style="endArrow=none;html=1;rounded=0;exitX=1;exitY=0.5;exitDx=0;exitDy=0;entryX=0;entryY=0.5;entryDx=0;entryDy=0;" parent="1" source="_vp2LtuRozF6I3-z_24L-51" target="2ZgAqoRttnUlPIWn56Kl-101" edge="1">
          <mxGeometry relative="1" as="geometry">
            <mxPoint x="-130" y="-410" as="sourcePoint" />
            <mxPoint x="-643" y="30" as="targetPoint" />
            <Array as="points" />
          </mxGeometry>
        </mxCell>
        <mxCell id="NFkFAfJ5zQV4zD1CImH5-14" value="" style="endArrow=none;html=1;rounded=0;exitX=0.943;exitY=0.7;exitDx=0;exitDy=0;entryX=0;entryY=0.5;entryDx=0;entryDy=0;exitPerimeter=0;" parent="1" source="2ZgAqoRttnUlPIWn56Kl-102" target="_vp2LtuRozF6I3-z_24L-60" edge="1">
          <mxGeometry relative="1" as="geometry">
            <mxPoint x="740" y="-440" as="sourcePoint" />
            <mxPoint x="900" y="-440" as="targetPoint" />
            <Array as="points">
              <mxPoint x="820" y="-931" />
            </Array>
          </mxGeometry>
        </mxCell>
        <mxCell id="NFkFAfJ5zQV4zD1CImH5-17" value="" style="endArrow=none;html=1;rounded=0;entryX=0.5;entryY=1.067;entryDx=0;entryDy=0;entryPerimeter=0;exitX=0.5;exitY=0;exitDx=0;exitDy=0;" parent="1" source="2ZgAqoRttnUlPIWn56Kl-100" target="2ZgAqoRttnUlPIWn56Kl-73" edge="1">
          <mxGeometry relative="1" as="geometry">
            <mxPoint x="930" y="-150" as="sourcePoint" />
            <mxPoint x="910.54" y="-514.71" as="targetPoint" />
            <Array as="points" />
          </mxGeometry>
        </mxCell>
        <mxCell id="NFkFAfJ5zQV4zD1CImH5-19" value="" style="endArrow=none;html=1;rounded=0;entryX=0;entryY=0.5;entryDx=0;entryDy=0;exitX=0.421;exitY=0.014;exitDx=0;exitDy=0;exitPerimeter=0;" parent="1" source="NFkFAfJ5zQV4zD1CImH5-20" target="2ZgAqoRttnUlPIWn56Kl-144" edge="1">
          <mxGeometry relative="1" as="geometry">
            <mxPoint x="160" y="-420" as="sourcePoint" />
            <mxPoint x="900" y="-160" as="targetPoint" />
            <Array as="points">
              <mxPoint x="160" y="-480" />
              <mxPoint x="80" y="-480" />
              <mxPoint x="80" y="-640" />
            </Array>
          </mxGeometry>
        </mxCell>
        <mxCell id="NFkFAfJ5zQV4zD1CImH5-21" value="" style="endArrow=none;html=1;rounded=0;exitX=0;exitY=0.5;exitDx=0;exitDy=0;entryX=0.443;entryY=1.057;entryDx=0;entryDy=0;entryPerimeter=0;" parent="1" source="_vp2LtuRozF6I3-z_24L-116" target="NFkFAfJ5zQV4zD1CImH5-20" edge="1">
          <mxGeometry relative="1" as="geometry">
            <mxPoint x="560" y="-341" as="sourcePoint" />
            <mxPoint x="710" y="-130" as="targetPoint" />
            <Array as="points">
              <mxPoint x="80" y="-180" />
              <mxPoint x="80" y="-280" />
              <mxPoint x="160" y="-280" />
            </Array>
          </mxGeometry>
        </mxCell>
        <mxCell id="NFkFAfJ5zQV4zD1CImH5-20" value="&lt;font size=&quot;3&quot;&gt;&lt;b&gt;approuver&lt;/b&gt;&lt;/font&gt;" style="ellipse;whiteSpace=wrap;html=1;" parent="1" vertex="1">
          <mxGeometry x="100" y="-410" width="140" height="70" as="geometry" />
        </mxCell>
        <mxCell id="NFkFAfJ5zQV4zD1CImH5-22" value="" style="endArrow=none;html=1;rounded=0;exitX=0.5;exitY=0;exitDx=0;exitDy=0;entryX=0;entryY=0.5;entryDx=0;entryDy=0;" parent="1" source="NFkFAfJ5zQV4zD1CImH5-41" target="_vp2LtuRozF6I3-z_24L-116" edge="1">
          <mxGeometry relative="1" as="geometry">
            <mxPoint x="350" y="-270" as="sourcePoint" />
            <mxPoint x="130" y="-170" as="targetPoint" />
          </mxGeometry>
        </mxCell>
        <mxCell id="NFkFAfJ5zQV4zD1CImH5-24" value="" style="endArrow=none;html=1;rounded=0;exitX=0.75;exitY=0;exitDx=0;exitDy=0;entryX=0.275;entryY=0.953;entryDx=0;entryDy=0;entryPerimeter=0;" parent="1" source="_vp2LtuRozF6I3-z_24L-56" target="NFkFAfJ5zQV4zD1CImH5-41" edge="1">
          <mxGeometry relative="1" as="geometry">
            <mxPoint x="180" y="-100" as="sourcePoint" />
            <mxPoint x="282.1999999999998" y="-203.49999999999977" as="targetPoint" />
          </mxGeometry>
        </mxCell>
        <mxCell id="NFkFAfJ5zQV4zD1CImH5-25" value="" style="endArrow=none;html=1;rounded=0;exitX=1;exitY=1;exitDx=0;exitDy=0;entryX=0;entryY=0.5;entryDx=0;entryDy=0;" parent="1" source="NFkFAfJ5zQV4zD1CImH5-26" target="_vp2LtuRozF6I3-z_24L-58" edge="1">
          <mxGeometry relative="1" as="geometry">
            <mxPoint x="-140" y="-90" as="sourcePoint" />
            <mxPoint x="20" y="-90" as="targetPoint" />
          </mxGeometry>
        </mxCell>
        <mxCell id="NFkFAfJ5zQV4zD1CImH5-27" value="" style="endArrow=none;html=1;rounded=0;exitX=1;exitY=0.5;exitDx=0;exitDy=0;entryX=0;entryY=0.5;entryDx=0;entryDy=0;" parent="1" source="ZjdlGWBYATQkl55H4jws-13" target="NFkFAfJ5zQV4zD1CImH5-26" edge="1">
          <mxGeometry relative="1" as="geometry">
            <mxPoint x="-330" y="45" as="sourcePoint" />
            <mxPoint x="20" y="-100" as="targetPoint" />
          </mxGeometry>
        </mxCell>
        <mxCell id="NFkFAfJ5zQV4zD1CImH5-26" value="&lt;font size=&quot;3&quot;&gt;&lt;b&gt;comprendre&lt;/b&gt;&lt;/font&gt;" style="ellipse;whiteSpace=wrap;html=1;" parent="1" vertex="1">
          <mxGeometry x="-500" y="-270" width="140" height="70" as="geometry" />
        </mxCell>
        <mxCell id="NFkFAfJ5zQV4zD1CImH5-29" value="" style="endArrow=none;html=1;rounded=0;entryX=0.5;entryY=1;entryDx=0;entryDy=0;exitX=0.5;exitY=0;exitDx=0;exitDy=0;" parent="1" source="2ZgAqoRttnUlPIWn56Kl-3" target="NFkFAfJ5zQV4zD1CImH5-93" edge="1">
          <mxGeometry relative="1" as="geometry">
            <mxPoint x="-70" y="190" as="sourcePoint" />
            <mxPoint x="-180.00000000000023" y="160.50000000000023" as="targetPoint" />
            <Array as="points" />
          </mxGeometry>
        </mxCell>
        <mxCell id="NFkFAfJ5zQV4zD1CImH5-31" value="" style="endArrow=none;html=1;rounded=0;entryX=0.585;entryY=0.992;entryDx=0;entryDy=0;entryPerimeter=0;exitX=0;exitY=0.5;exitDx=0;exitDy=0;" parent="1" source="_vp2LtuRozF6I3-z_24L-54" target="NFkFAfJ5zQV4zD1CImH5-30" edge="1">
          <mxGeometry relative="1" as="geometry">
            <mxPoint x="-413" y="400" as="sourcePoint" />
            <mxPoint x="-412" y="94" as="targetPoint" />
            <Array as="points">
              <mxPoint x="-600" y="-590" />
              <mxPoint x="-600" y="-480" />
            </Array>
          </mxGeometry>
        </mxCell>
        <mxCell id="NFkFAfJ5zQV4zD1CImH5-30" value="&lt;font size=&quot;1&quot; style=&quot;&quot;&gt;&lt;b style=&quot;font-size: 16px;&quot;&gt;comporter&lt;/b&gt;&lt;/font&gt;" style="ellipse;whiteSpace=wrap;html=1;" parent="1" vertex="1">
          <mxGeometry x="-553" y="-450" width="140" height="70" as="geometry" />
        </mxCell>
        <mxCell id="NFkFAfJ5zQV4zD1CImH5-33" value="" style="endArrow=none;html=1;rounded=0;entryX=0.498;entryY=0.992;entryDx=0;entryDy=0;entryPerimeter=0;exitX=0.5;exitY=0;exitDx=0;exitDy=0;" parent="1" source="NFkFAfJ5zQV4zD1CImH5-98" target="2ZgAqoRttnUlPIWn56Kl-5" edge="1">
          <mxGeometry relative="1" as="geometry">
            <mxPoint x="-180.00000000000023" y="550" as="sourcePoint" />
            <mxPoint x="-179.01999999999998" y="331.0500000000002" as="targetPoint" />
          </mxGeometry>
        </mxCell>
        <mxCell id="NFkFAfJ5zQV4zD1CImH5-41" value="" style="shape=ellipse;container=1;horizontal=1;horizontalStack=0;resizeParent=1;resizeParentMax=0;resizeLast=0;html=1;dashed=0;collapsible=0;" parent="1" vertex="1">
          <mxGeometry x="-85" y="-120" width="150" height="80" as="geometry" />
        </mxCell>
        <mxCell id="NFkFAfJ5zQV4zD1CImH5-42" value="&lt;b style=&quot;border-color: var(--border-color); font-size: medium;&quot;&gt;porter sur&lt;/b&gt;" style="html=1;strokeColor=none;fillColor=none;align=center;verticalAlign=middle;rotatable=0;whiteSpace=wrap;" parent="NFkFAfJ5zQV4zD1CImH5-41" vertex="1">
          <mxGeometry y="6.67" width="150" height="20" as="geometry" />
        </mxCell>
        <mxCell id="NFkFAfJ5zQV4zD1CImH5-43" value="" style="line;strokeWidth=1;fillColor=none;rotatable=0;labelPosition=right;points=[];portConstraint=eastwest;dashed=0;resizeWidth=1;" parent="NFkFAfJ5zQV4zD1CImH5-41" vertex="1">
          <mxGeometry x="7.5" y="20" width="135" height="10" as="geometry" />
        </mxCell>
        <mxCell id="NFkFAfJ5zQV4zD1CImH5-44" value="Date_emp" style="text;html=1;align=center;verticalAlign=middle;rotatable=0;fillColor=none;strokeColor=none;whiteSpace=wrap;" parent="NFkFAfJ5zQV4zD1CImH5-41" vertex="1">
          <mxGeometry y="26.666666666666664" width="150" height="20" as="geometry" />
        </mxCell>
        <mxCell id="NFkFAfJ5zQV4zD1CImH5-45" value="Etat_equip" style="text;html=1;align=left;verticalAlign=middle;rotatable=0;spacingLeft=25;fillColor=none;strokeColor=none;whiteSpace=wrap;" parent="NFkFAfJ5zQV4zD1CImH5-41" vertex="1">
          <mxGeometry x="20" y="46.666666666666664" width="150" height="20" as="geometry" />
        </mxCell>
        <mxCell id="NFkFAfJ5zQV4zD1CImH5-46" value="" style="shape=ellipse;container=1;horizontal=1;horizontalStack=0;resizeParent=1;resizeParentMax=0;resizeLast=0;html=1;dashed=0;collapsible=0;" parent="1" vertex="1">
          <mxGeometry x="-185" y="-630" width="150" height="80" as="geometry" />
        </mxCell>
        <mxCell id="NFkFAfJ5zQV4zD1CImH5-47" value="&lt;br style=&quot;border-color: var(--border-color);&quot;&gt;&lt;font size=&quot;3&quot;&gt;&lt;b&gt;concerner&lt;/b&gt;&lt;/font&gt;" style="html=1;strokeColor=none;fillColor=none;align=center;verticalAlign=middle;rotatable=0;whiteSpace=wrap;" parent="NFkFAfJ5zQV4zD1CImH5-46" vertex="1">
          <mxGeometry width="150" height="20" as="geometry" />
        </mxCell>
        <mxCell id="NFkFAfJ5zQV4zD1CImH5-48" value="" style="line;strokeWidth=1;fillColor=none;rotatable=0;labelPosition=right;points=[];portConstraint=eastwest;dashed=0;resizeWidth=1;" parent="NFkFAfJ5zQV4zD1CImH5-46" vertex="1">
          <mxGeometry x="7.5" y="26.67" width="135" height="3.3299999999999996" as="geometry" />
        </mxCell>
        <mxCell id="NFkFAfJ5zQV4zD1CImH5-49" value="date_res" style="text;html=1;align=center;verticalAlign=middle;rotatable=0;fillColor=none;strokeColor=none;whiteSpace=wrap;" parent="NFkFAfJ5zQV4zD1CImH5-46" vertex="1">
          <mxGeometry y="29.99619047619048" width="150" height="20" as="geometry" />
        </mxCell>
        <mxCell id="nu3UtHRdyJgBSU6vwzOk-22" value="nbr_dmnd" style="text;html=1;align=center;verticalAlign=middle;rotatable=0;fillColor=none;strokeColor=none;whiteSpace=wrap;" parent="NFkFAfJ5zQV4zD1CImH5-46" vertex="1">
          <mxGeometry x="25" y="50" width="100" height="20" as="geometry" />
        </mxCell>
        <mxCell id="NFkFAfJ5zQV4zD1CImH5-57" value="" style="shape=ellipse;container=1;horizontal=1;horizontalStack=0;resizeParent=1;resizeParentMax=0;resizeLast=0;html=1;dashed=0;collapsible=0;" parent="1" vertex="1">
          <mxGeometry x="600" y="229.58" width="130" height="70" as="geometry" />
        </mxCell>
        <mxCell id="NFkFAfJ5zQV4zD1CImH5-58" value="&lt;b style=&quot;border-color: var(--border-color); font-size: medium;&quot;&gt;operer&lt;/b&gt;" style="html=1;strokeColor=none;fillColor=none;align=center;verticalAlign=middle;rotatable=0;whiteSpace=wrap;" parent="NFkFAfJ5zQV4zD1CImH5-57" vertex="1">
          <mxGeometry x="-3.25" y="7.3" width="130" height="17.5" as="geometry" />
        </mxCell>
        <mxCell id="NFkFAfJ5zQV4zD1CImH5-59" value="" style="line;strokeWidth=1;fillColor=none;rotatable=0;labelPosition=right;points=[];portConstraint=eastwest;dashed=0;resizeWidth=1;" parent="NFkFAfJ5zQV4zD1CImH5-57" vertex="1">
          <mxGeometry x="3.25" y="24.799999999999997" width="123.5" height="5.83" as="geometry" />
        </mxCell>
        <mxCell id="NFkFAfJ5zQV4zD1CImH5-60" value="date_op" style="text;html=1;align=center;verticalAlign=middle;rotatable=0;fillColor=none;strokeColor=none;whiteSpace=wrap;" parent="NFkFAfJ5zQV4zD1CImH5-57" vertex="1">
          <mxGeometry y="30.63" width="130" height="17.5" as="geometry" />
        </mxCell>
        <mxCell id="NFkFAfJ5zQV4zD1CImH5-62" value="" style="endArrow=none;html=1;rounded=0;entryX=0;entryY=0.5;entryDx=0;entryDy=0;exitX=0.94;exitY=1.15;exitDx=0;exitDy=0;exitPerimeter=0;" parent="1" source="NFkFAfJ5zQV4zD1CImH5-58" target="2ZgAqoRttnUlPIWn56Kl-28" edge="1">
          <mxGeometry relative="1" as="geometry">
            <mxPoint x="250" y="448" as="sourcePoint" />
            <mxPoint x="410" y="448" as="targetPoint" />
          </mxGeometry>
        </mxCell>
        <mxCell id="NFkFAfJ5zQV4zD1CImH5-68" value="" style="endArrow=none;html=1;rounded=0;exitX=1.018;exitY=0.4;exitDx=0;exitDy=0;entryX=0;entryY=0.5;entryDx=0;entryDy=0;exitPerimeter=0;" parent="1" source="NFkFAfJ5zQV4zD1CImH5-71" target="_vp2LtuRozF6I3-z_24L-41" edge="1">
          <mxGeometry relative="1" as="geometry">
            <mxPoint x="70" y="680" as="sourcePoint" />
            <mxPoint x="150" y="710" as="targetPoint" />
          </mxGeometry>
        </mxCell>
        <mxCell id="NFkFAfJ5zQV4zD1CImH5-74" value="" style="endArrow=none;html=1;rounded=0;exitX=1;exitY=0.5;exitDx=0;exitDy=0;entryX=0.353;entryY=0.014;entryDx=0;entryDy=0;entryPerimeter=0;" parent="1" source="_vp2LtuRozF6I3-z_24L-57" target="NFkFAfJ5zQV4zD1CImH5-70" edge="1">
          <mxGeometry relative="1" as="geometry">
            <mxPoint x="102.40000000000009" y="-35.02999999999997" as="sourcePoint" />
            <mxPoint x="245" y="750" as="targetPoint" />
          </mxGeometry>
        </mxCell>
        <mxCell id="NFkFAfJ5zQV4zD1CImH5-69" value="" style="shape=ellipse;container=1;horizontal=1;horizontalStack=0;resizeParent=1;resizeParentMax=0;resizeLast=0;html=1;dashed=0;collapsible=0;" parent="1" vertex="1">
          <mxGeometry x="-170" y="190" width="130" height="90" as="geometry" />
        </mxCell>
        <mxCell id="NFkFAfJ5zQV4zD1CImH5-70" value="&lt;font size=&quot;3&quot;&gt;&lt;b&gt;soumettre&lt;/b&gt;&lt;/font&gt;" style="html=1;strokeColor=none;fillColor=none;align=center;verticalAlign=middle;rotatable=0;whiteSpace=wrap;" parent="NFkFAfJ5zQV4zD1CImH5-69" vertex="1">
          <mxGeometry y="7.502727272727272" width="130" height="22.500000000000004" as="geometry" />
        </mxCell>
        <mxCell id="NFkFAfJ5zQV4zD1CImH5-71" value="" style="line;strokeWidth=1;fillColor=none;rotatable=0;labelPosition=right;points=[];portConstraint=eastwest;dashed=0;resizeWidth=1;" parent="NFkFAfJ5zQV4zD1CImH5-69" vertex="1">
          <mxGeometry x="3.25" y="30" width="123.5" height="7.5" as="geometry" />
        </mxCell>
        <mxCell id="NFkFAfJ5zQV4zD1CImH5-72" value="date_interv" style="text;html=1;align=center;verticalAlign=middle;rotatable=0;fillColor=none;strokeColor=none;whiteSpace=wrap;" parent="NFkFAfJ5zQV4zD1CImH5-69" vertex="1">
          <mxGeometry y="37.5" width="130" height="22.500000000000004" as="geometry" />
        </mxCell>
        <mxCell id="NFkFAfJ5zQV4zD1CImH5-80" value="" style="endArrow=none;html=1;rounded=0;entryX=0.418;entryY=0.085;entryDx=0;entryDy=0;exitX=0.429;exitY=1.005;exitDx=0;exitDy=0;exitPerimeter=0;entryPerimeter=0;" parent="1" source="_vp2LtuRozF6I3-z_24L-69" target="NFkFAfJ5zQV4zD1CImH5-76" edge="1">
          <mxGeometry relative="1" as="geometry">
            <mxPoint x="85.12000000000012" y="-35.779999999999745" as="sourcePoint" />
            <mxPoint x="170" y="610" as="targetPoint" />
          </mxGeometry>
        </mxCell>
        <mxCell id="NFkFAfJ5zQV4zD1CImH5-87" value="" style="endArrow=none;html=1;rounded=0;exitX=0.5;exitY=0;exitDx=0;exitDy=0;entryX=0;entryY=0.5;entryDx=0;entryDy=0;" parent="1" source="NFkFAfJ5zQV4zD1CImH5-88" target="_vp2LtuRozF6I3-z_24L-41" edge="1">
          <mxGeometry relative="1" as="geometry">
            <mxPoint x="-40" y="700" as="sourcePoint" />
            <mxPoint x="120" y="700" as="targetPoint" />
          </mxGeometry>
        </mxCell>
        <mxCell id="NFkFAfJ5zQV4zD1CImH5-93" value="" style="shape=ellipse;container=1;horizontal=1;horizontalStack=0;resizeParent=1;resizeParentMax=0;resizeLast=0;html=1;dashed=0;collapsible=0;" parent="1" vertex="1">
          <mxGeometry x="-630" y="215" width="140" height="84.58000000000004" as="geometry" />
        </mxCell>
        <mxCell id="NFkFAfJ5zQV4zD1CImH5-94" value="&lt;b&gt;&lt;font style=&quot;font-size: 16px;&quot;&gt;affilier&lt;/font&gt;&lt;/b&gt;" style="html=1;strokeColor=none;fillColor=none;align=center;verticalAlign=middle;rotatable=0;whiteSpace=wrap;" parent="NFkFAfJ5zQV4zD1CImH5-93" vertex="1">
          <mxGeometry y="-0.004545454545454852" width="140" height="17.500000000000004" as="geometry" />
        </mxCell>
        <mxCell id="NFkFAfJ5zQV4zD1CImH5-95" value="" style="line;strokeWidth=1;fillColor=none;rotatable=0;labelPosition=right;points=[];portConstraint=eastwest;dashed=0;resizeWidth=1;" parent="NFkFAfJ5zQV4zD1CImH5-93" vertex="1">
          <mxGeometry x="7" y="17.500000000000004" width="126" height="5.833333333333334" as="geometry" />
        </mxCell>
        <mxCell id="NFkFAfJ5zQV4zD1CImH5-96" value="date_etat" style="text;html=1;align=center;verticalAlign=middle;rotatable=0;fillColor=none;strokeColor=none;whiteSpace=wrap;" parent="NFkFAfJ5zQV4zD1CImH5-93" vertex="1">
          <mxGeometry y="23.33058823529412" width="140" height="17.5" as="geometry" />
        </mxCell>
        <mxCell id="nu3UtHRdyJgBSU6vwzOk-23" value="Lib_etat" style="text;html=1;align=center;verticalAlign=middle;rotatable=0;fillColor=none;strokeColor=none;whiteSpace=wrap;" parent="NFkFAfJ5zQV4zD1CImH5-93" vertex="1">
          <mxGeometry x="10" y="40.83" width="120" height="17.5" as="geometry" />
        </mxCell>
        <mxCell id="NFkFAfJ5zQV4zD1CImH5-98" value="" style="shape=ellipse;container=1;horizontal=1;horizontalStack=0;resizeParent=1;resizeParentMax=0;resizeLast=0;html=1;dashed=0;collapsible=0;" parent="1" vertex="1">
          <mxGeometry x="-630" y="650" width="130" height="90" as="geometry" />
        </mxCell>
        <mxCell id="NFkFAfJ5zQV4zD1CImH5-99" value="&lt;b style=&quot;border-color: var(--border-color); font-size: medium;&quot;&gt;etre attribué&lt;/b&gt;" style="html=1;strokeColor=none;fillColor=none;align=center;verticalAlign=middle;rotatable=0;whiteSpace=wrap;" parent="NFkFAfJ5zQV4zD1CImH5-98" vertex="1">
          <mxGeometry y="7.502727272727273" width="130" height="22.500000000000004" as="geometry" />
        </mxCell>
        <mxCell id="NFkFAfJ5zQV4zD1CImH5-100" value="" style="line;strokeWidth=1;fillColor=none;rotatable=0;labelPosition=right;points=[];portConstraint=eastwest;dashed=0;resizeWidth=1;" parent="NFkFAfJ5zQV4zD1CImH5-98" vertex="1">
          <mxGeometry y="30" width="130" height="7.5" as="geometry" />
        </mxCell>
        <mxCell id="NFkFAfJ5zQV4zD1CImH5-101" value="date_exp_log" style="text;html=1;align=center;verticalAlign=middle;rotatable=0;fillColor=none;strokeColor=none;whiteSpace=wrap;" parent="NFkFAfJ5zQV4zD1CImH5-98" vertex="1">
          <mxGeometry y="37.50000000000001" width="130" height="22.500000000000004" as="geometry" />
        </mxCell>
        <mxCell id="NFkFAfJ5zQV4zD1CImH5-107" value="&lt;h2&gt;service&lt;/h2&gt;" style="swimlane;fontStyle=0;childLayout=stackLayout;horizontal=1;startSize=30;horizontalStack=0;resizeParent=1;resizeParentMax=0;resizeLast=0;collapsible=1;marginBottom=0;whiteSpace=wrap;html=1;" parent="1" vertex="1">
          <mxGeometry x="-1160" y="-160" width="140" height="90" as="geometry">
            <mxRectangle x="-553" y="460" width="140" height="60" as="alternateBounds" />
          </mxGeometry>
        </mxCell>
        <mxCell id="NFkFAfJ5zQV4zD1CImH5-108" value="&lt;u&gt;num_ser&lt;/u&gt;" style="text;strokeColor=none;fillColor=none;align=left;verticalAlign=middle;spacingLeft=4;spacingRight=4;overflow=hidden;points=[[0,0.5],[1,0.5]];portConstraint=eastwest;rotatable=0;whiteSpace=wrap;html=1;" parent="NFkFAfJ5zQV4zD1CImH5-107" vertex="1">
          <mxGeometry y="30" width="140" height="30" as="geometry" />
        </mxCell>
        <mxCell id="NFkFAfJ5zQV4zD1CImH5-109" value="lib_ ser" style="text;strokeColor=none;fillColor=none;align=left;verticalAlign=middle;spacingLeft=4;spacingRight=4;overflow=hidden;points=[[0,0.5],[1,0.5]];portConstraint=eastwest;rotatable=0;whiteSpace=wrap;html=1;" parent="NFkFAfJ5zQV4zD1CImH5-107" vertex="1">
          <mxGeometry y="60" width="140" height="30" as="geometry" />
        </mxCell>
        <mxCell id="NFkFAfJ5zQV4zD1CImH5-110" value="" style="endArrow=none;html=1;rounded=0;exitX=0.605;exitY=0.965;exitDx=0;exitDy=0;exitPerimeter=0;entryX=0;entryY=0.5;entryDx=0;entryDy=0;" parent="1" source="NFkFAfJ5zQV4zD1CImH5-112" target="ZjdlGWBYATQkl55H4jws-13" edge="1">
          <mxGeometry relative="1" as="geometry">
            <mxPoint x="-750" y="-330" as="sourcePoint" />
            <mxPoint x="-770" y="-230" as="targetPoint" />
          </mxGeometry>
        </mxCell>
        <mxCell id="NFkFAfJ5zQV4zD1CImH5-113" value="" style="endArrow=none;html=1;rounded=0;exitX=1;exitY=0.5;exitDx=0;exitDy=0;entryX=0;entryY=0.5;entryDx=0;entryDy=0;" parent="1" source="NFkFAfJ5zQV4zD1CImH5-108" target="NFkFAfJ5zQV4zD1CImH5-112" edge="1">
          <mxGeometry relative="1" as="geometry">
            <mxPoint x="-640" y="-531" as="sourcePoint" />
            <mxPoint x="-477" y="-240" as="targetPoint" />
          </mxGeometry>
        </mxCell>
        <mxCell id="NFkFAfJ5zQV4zD1CImH5-112" value="&lt;font size=&quot;1&quot; style=&quot;&quot;&gt;&lt;b style=&quot;font-size: 16px;&quot;&gt;contenir&lt;/b&gt;&lt;/font&gt;" style="ellipse;whiteSpace=wrap;html=1;" parent="1" vertex="1">
          <mxGeometry x="-890" y="-150" width="140" height="70" as="geometry" />
        </mxCell>
        <mxCell id="NFkFAfJ5zQV4zD1CImH5-114" value="" style="endArrow=none;html=1;rounded=0;entryX=0;entryY=0.5;entryDx=0;entryDy=0;" parent="1" target="ZjdlGWBYATQkl55H4jws-13" edge="1">
          <mxGeometry relative="1" as="geometry">
            <mxPoint x="-1060" y="-310" as="sourcePoint" />
            <mxPoint x="-570" y="80" as="targetPoint" />
            <Array as="points">
              <mxPoint x="-1048" y="-240" />
            </Array>
          </mxGeometry>
        </mxCell>
        <mxCell id="NFkFAfJ5zQV4zD1CImH5-115" value="" style="endArrow=none;html=1;rounded=0;exitX=0;exitY=0.5;exitDx=0;exitDy=0;entryX=0.353;entryY=1.015;entryDx=0;entryDy=0;entryPerimeter=0;exitPerimeter=0;" parent="1" source="cgGnD4WlNKiAV_FmcP1Z-58" target="NFkFAfJ5zQV4zD1CImH5-111" edge="1">
          <mxGeometry relative="1" as="geometry">
            <mxPoint x="-710" y="160" as="sourcePoint" />
            <mxPoint x="-630" y="40" as="targetPoint" />
            <Array as="points">
              <mxPoint x="-1200" y="-520" />
              <mxPoint x="-1200" y="-430" />
            </Array>
          </mxGeometry>
        </mxCell>
        <mxCell id="NFkFAfJ5zQV4zD1CImH5-111" value="&lt;b style=&quot;border-color: var(--border-color); font-size: 16px;&quot;&gt;englober&lt;/b&gt;" style="ellipse;whiteSpace=wrap;html=1;" parent="1" vertex="1">
          <mxGeometry x="-1130" y="-380" width="140" height="70" as="geometry" />
        </mxCell>
        <mxCell id="NFkFAfJ5zQV4zD1CImH5-116" value="&lt;font color=&quot;#ff0000&quot;&gt;1,1&lt;/font&gt;" style="text;html=1;align=center;verticalAlign=middle;resizable=0;points=[];autosize=1;strokeColor=none;fillColor=none;" parent="1" vertex="1">
          <mxGeometry x="260" y="250" width="40" height="30" as="geometry" />
        </mxCell>
        <mxCell id="NFkFAfJ5zQV4zD1CImH5-117" value="&lt;font color=&quot;#ff0000&quot;&gt;0,N&lt;/font&gt;" style="text;html=1;align=center;verticalAlign=middle;resizable=0;points=[];autosize=1;strokeColor=none;fillColor=none;" parent="1" vertex="1">
          <mxGeometry x="-1010" y="-160" width="40" height="30" as="geometry" />
        </mxCell>
        <mxCell id="NFkFAfJ5zQV4zD1CImH5-119" value="&lt;font color=&quot;#ff0000&quot;&gt;1,1&lt;/font&gt;" style="text;html=1;align=center;verticalAlign=middle;resizable=0;points=[];autosize=1;strokeColor=none;fillColor=none;" parent="1" vertex="1">
          <mxGeometry x="-810" y="-200" width="40" height="30" as="geometry" />
        </mxCell>
        <mxCell id="NFkFAfJ5zQV4zD1CImH5-120" value="&lt;font color=&quot;#ff0000&quot;&gt;1,N&lt;/font&gt;" style="text;html=1;align=center;verticalAlign=middle;resizable=0;points=[];autosize=1;strokeColor=none;fillColor=none;" parent="1" vertex="1">
          <mxGeometry x="-760" y="70" width="40" height="30" as="geometry" />
        </mxCell>
        <mxCell id="NFkFAfJ5zQV4zD1CImH5-121" value="*" style="text;html=1;align=center;verticalAlign=middle;resizable=0;points=[];autosize=1;strokeColor=none;fillColor=none;" parent="1" vertex="1">
          <mxGeometry x="-815" y="158" width="30" height="30" as="geometry" />
        </mxCell>
        <mxCell id="NFkFAfJ5zQV4zD1CImH5-122" value="" style="endArrow=none;html=1;rounded=0;exitX=0.5;exitY=1;exitDx=0;exitDy=0;entryX=1;entryY=0.5;entryDx=0;entryDy=0;" parent="1" source="NFkFAfJ5zQV4zD1CImH5-123" target="_vp2LtuRozF6I3-z_24L-41" edge="1">
          <mxGeometry relative="1" as="geometry">
            <mxPoint x="995" y="-569" as="sourcePoint" />
            <mxPoint x="270" y="200" as="targetPoint" />
            <Array as="points">
              <mxPoint x="1160" y="100" />
            </Array>
          </mxGeometry>
        </mxCell>
        <mxCell id="NFkFAfJ5zQV4zD1CImH5-125" value="" style="endArrow=none;html=1;rounded=0;exitX=1;exitY=0;exitDx=0;exitDy=0;entryX=0.5;entryY=0;entryDx=0;entryDy=0;exitPerimeter=0;" parent="1" source="2ZgAqoRttnUlPIWn56Kl-72" target="NFkFAfJ5zQV4zD1CImH5-123" edge="1">
          <mxGeometry relative="1" as="geometry">
            <mxPoint x="1000" y="-580" as="sourcePoint" />
            <mxPoint x="350" y="835" as="targetPoint" />
            <Array as="points">
              <mxPoint x="1165" y="-564" />
            </Array>
          </mxGeometry>
        </mxCell>
        <mxCell id="NFkFAfJ5zQV4zD1CImH5-123" value="&lt;font size=&quot;3&quot;&gt;&lt;b&gt;soliciter&lt;/b&gt;&lt;/font&gt;" style="ellipse;whiteSpace=wrap;html=1;" parent="1" vertex="1">
          <mxGeometry x="1090" y="-210" width="140" height="70" as="geometry" />
        </mxCell>
        <mxCell id="NFkFAfJ5zQV4zD1CImH5-126" value="&lt;font color=&quot;#ff0000&quot;&gt;0,N&lt;/font&gt;" style="text;html=1;align=center;verticalAlign=middle;resizable=0;points=[];autosize=1;strokeColor=none;fillColor=none;" parent="1" vertex="1">
          <mxGeometry x="770" y="-720" width="40" height="30" as="geometry" />
        </mxCell>
        <mxCell id="NFkFAfJ5zQV4zD1CImH5-127" value="&lt;font color=&quot;#ff0000&quot;&gt;1,N&lt;/font&gt;" style="text;html=1;align=center;verticalAlign=middle;resizable=0;points=[];autosize=1;strokeColor=none;fillColor=none;" parent="1" vertex="1">
          <mxGeometry x="-1210" y="-560" width="40" height="30" as="geometry" />
        </mxCell>
        <mxCell id="NFkFAfJ5zQV4zD1CImH5-128" value="" style="endArrow=none;html=1;rounded=0;entryX=0.5;entryY=1;entryDx=0;entryDy=0;exitX=0.5;exitY=0;exitDx=0;exitDy=0;" parent="1" source="cgGnD4WlNKiAV_FmcP1Z-3" target="NFkFAfJ5zQV4zD1CImH5-75" edge="1">
          <mxGeometry relative="1" as="geometry">
            <mxPoint x="-360" y="590" as="sourcePoint" />
            <mxPoint x="-200" y="590" as="targetPoint" />
            <Array as="points" />
          </mxGeometry>
        </mxCell>
        <mxCell id="NFkFAfJ5zQV4zD1CImH5-130" value="" style="endArrow=none;html=1;rounded=0;exitX=1;exitY=0.5;exitDx=0;exitDy=0;entryX=0.5;entryY=0;entryDx=0;entryDy=0;" parent="1" source="_vp2LtuRozF6I3-z_24L-41" target="2ZgAqoRttnUlPIWn56Kl-91" edge="1">
          <mxGeometry relative="1" as="geometry">
            <mxPoint x="570" y="670" as="sourcePoint" />
            <mxPoint x="730" y="670" as="targetPoint" />
          </mxGeometry>
        </mxCell>
        <mxCell id="NFkFAfJ5zQV4zD1CImH5-16" value="&lt;font size=&quot;3&quot;&gt;&lt;b&gt;demander&lt;/b&gt;&lt;/font&gt;" style="ellipse;whiteSpace=wrap;html=1;" parent="1" vertex="1">
          <mxGeometry x="510" y="-516" width="140" height="70" as="geometry" />
        </mxCell>
        <mxCell id="nu3UtHRdyJgBSU6vwzOk-7" value="" style="endArrow=none;html=1;rounded=0;entryX=0.5;entryY=1;entryDx=0;entryDy=0;exitX=1;exitY=0.5;exitDx=0;exitDy=0;" parent="1" source="_vp2LtuRozF6I3-z_24L-116" target="NFkFAfJ5zQV4zD1CImH5-16" edge="1">
          <mxGeometry relative="1" as="geometry">
            <mxPoint x="510" y="-430" as="sourcePoint" />
            <mxPoint x="670" y="-430" as="targetPoint" />
            <Array as="points">
              <mxPoint x="580" y="-180" />
            </Array>
          </mxGeometry>
        </mxCell>
        <mxCell id="nu3UtHRdyJgBSU6vwzOk-8" value="" style="endArrow=none;html=1;rounded=0;entryX=0;entryY=0.5;entryDx=0;entryDy=0;" parent="1" target="_vp2LtuRozF6I3-z_24L-60" edge="1">
          <mxGeometry relative="1" as="geometry">
            <mxPoint x="580" y="-520" as="sourcePoint" />
            <mxPoint x="900" y="-440" as="targetPoint" />
            <Array as="points">
              <mxPoint x="580" y="-680" />
            </Array>
          </mxGeometry>
        </mxCell>
        <mxCell id="nu3UtHRdyJgBSU6vwzOk-12" value="" style="endArrow=none;html=1;rounded=0;exitX=1;exitY=0.5;exitDx=0;exitDy=0;entryX=0;entryY=0.5;entryDx=0;entryDy=0;" parent="1" source="_vp2LtuRozF6I3-z_24L-57" target="2ZgAqoRttnUlPIWn56Kl-100" edge="1">
          <mxGeometry relative="1" as="geometry">
            <mxPoint x="380" y="-140" as="sourcePoint" />
            <mxPoint x="540" y="-140" as="targetPoint" />
          </mxGeometry>
        </mxCell>
        <mxCell id="nu3UtHRdyJgBSU6vwzOk-15" value="" style="endArrow=none;html=1;rounded=0;entryX=0;entryY=0.5;entryDx=0;entryDy=0;exitX=0.5;exitY=1;exitDx=0;exitDy=0;" parent="1" source="2ZgAqoRttnUlPIWn56Kl-91" target="2ZgAqoRttnUlPIWn56Kl-63" edge="1">
          <mxGeometry relative="1" as="geometry">
            <mxPoint x="430" y="450" as="sourcePoint" />
            <mxPoint x="420" y="640" as="targetPoint" />
            <Array as="points">
              <mxPoint x="410" y="535" />
            </Array>
          </mxGeometry>
        </mxCell>
        <mxCell id="nu3UtHRdyJgBSU6vwzOk-16" value="" style="endArrow=none;html=1;rounded=0;exitX=1;exitY=0.5;exitDx=0;exitDy=0;entryX=0;entryY=0.5;entryDx=0;entryDy=0;" parent="1" source="cgGnD4WlNKiAV_FmcP1Z-4" target="NFkFAfJ5zQV4zD1CImH5-88" edge="1">
          <mxGeometry relative="1" as="geometry">
            <mxPoint x="-110" y="755" as="sourcePoint" />
            <mxPoint x="310" y="755" as="targetPoint" />
          </mxGeometry>
        </mxCell>
        <mxCell id="NFkFAfJ5zQV4zD1CImH5-88" value="" style="shape=ellipse;container=1;horizontal=1;horizontalStack=0;resizeParent=1;resizeParentMax=0;resizeLast=0;html=1;dashed=0;collapsible=0;" parent="1" vertex="1">
          <mxGeometry x="10" y="650" width="130" height="70" as="geometry" />
        </mxCell>
        <mxCell id="NFkFAfJ5zQV4zD1CImH5-89" value="&lt;b style=&quot;border-color: var(--border-color); font-size: medium;&quot;&gt;faire l&#39;objet&lt;/b&gt;" style="html=1;strokeColor=none;fillColor=none;align=center;verticalAlign=middle;rotatable=0;whiteSpace=wrap;" parent="NFkFAfJ5zQV4zD1CImH5-88" vertex="1">
          <mxGeometry y="5.835454545454545" width="130" height="17.500000000000004" as="geometry" />
        </mxCell>
        <mxCell id="NFkFAfJ5zQV4zD1CImH5-90" value="" style="line;strokeWidth=1;fillColor=none;rotatable=0;labelPosition=right;points=[];portConstraint=eastwest;dashed=0;resizeWidth=1;" parent="NFkFAfJ5zQV4zD1CImH5-88" vertex="1">
          <mxGeometry x="3.25" y="20.41375" width="123.5" height="5.83625" as="geometry" />
        </mxCell>
        <mxCell id="NFkFAfJ5zQV4zD1CImH5-91" value="date_int" style="text;html=1;align=center;verticalAlign=middle;rotatable=0;fillColor=none;strokeColor=none;whiteSpace=wrap;" parent="NFkFAfJ5zQV4zD1CImH5-88" vertex="1">
          <mxGeometry y="26.247083333333336" width="130" height="17.500000000000004" as="geometry" />
        </mxCell>
        <mxCell id="-WIzQq1mT4hBImDE0pB5-2" value="" style="endArrow=none;html=1;rounded=0;exitX=1;exitY=0.5;exitDx=0;exitDy=0;entryX=0.364;entryY=0.014;entryDx=0;entryDy=0;entryPerimeter=0;" parent="1" source="2ZgAqoRttnUlPIWn56Kl-17" target="2ZgAqoRttnUlPIWn56Kl-102" edge="1">
          <mxGeometry relative="1" as="geometry">
            <mxPoint x="650" y="-560" as="sourcePoint" />
            <mxPoint x="810" y="-560" as="targetPoint" />
            <Array as="points">
              <mxPoint x="550" y="-1040" />
            </Array>
          </mxGeometry>
        </mxCell>
        <mxCell id="-WIzQq1mT4hBImDE0pB5-5" value="1,N" style="text;html=1;align=center;verticalAlign=middle;resizable=0;points=[];autosize=1;strokeColor=none;fillColor=none;fontColor=#FF0000;" parent="1" vertex="1">
          <mxGeometry x="-420" y="40" width="40" height="30" as="geometry" />
        </mxCell>
        <mxCell id="HdJB19JEEtUbEPR0QAvj-1" value="&lt;font size=&quot;3&quot;&gt;&lt;b&gt;accepter&lt;/b&gt;&lt;/font&gt;" style="ellipse;whiteSpace=wrap;html=1;" vertex="1" parent="1">
          <mxGeometry x="120" y="-900" width="140" height="70" as="geometry" />
        </mxCell>
        <mxCell id="HdJB19JEEtUbEPR0QAvj-2" value="" style="endArrow=none;html=1;rounded=0;entryX=0.5;entryY=1;entryDx=0;entryDy=0;exitX=0;exitY=0.5;exitDx=0;exitDy=0;" edge="1" parent="1" source="2ZgAqoRttnUlPIWn56Kl-144" target="HdJB19JEEtUbEPR0QAvj-1">
          <mxGeometry width="50" height="50" relative="1" as="geometry">
            <mxPoint x="180" y="-750" as="sourcePoint" />
            <mxPoint x="230" y="-800" as="targetPoint" />
            <Array as="points">
              <mxPoint x="80" y="-680" />
              <mxPoint x="80" y="-760" />
              <mxPoint x="190" y="-760" />
            </Array>
          </mxGeometry>
        </mxCell>
        <mxCell id="HdJB19JEEtUbEPR0QAvj-3" value="" style="endArrow=none;html=1;rounded=0;entryX=0.5;entryY=0;entryDx=0;entryDy=0;exitX=0;exitY=0.5;exitDx=0;exitDy=0;" edge="1" parent="1" source="2ZgAqoRttnUlPIWn56Kl-17" target="HdJB19JEEtUbEPR0QAvj-1">
          <mxGeometry width="50" height="50" relative="1" as="geometry">
            <mxPoint x="270" y="-790" as="sourcePoint" />
            <mxPoint x="320" y="-840" as="targetPoint" />
            <Array as="points">
              <mxPoint x="90" y="-1010" />
              <mxPoint x="80" y="-960" />
            </Array>
          </mxGeometry>
        </mxCell>
        <mxCell id="2ZgAqoRttnUlPIWn56Kl-101" value="&lt;font style=&quot;font-size: 14px;&quot;&gt;&lt;b&gt;lier&lt;/b&gt;&lt;/font&gt;" style="ellipse;whiteSpace=wrap;html=1;" parent="1" vertex="1">
          <mxGeometry x="-640" y="-15" width="140" height="70" as="geometry" />
        </mxCell>
        <mxCell id="NFkFAfJ5zQV4zD1CImH5-75" value="" style="shape=ellipse;container=1;horizontal=1;horizontalStack=0;resizeParent=1;resizeParentMax=0;resizeLast=0;html=1;dashed=0;collapsible=0;" parent="1" vertex="1">
          <mxGeometry x="-355" y="350" width="130" height="80" as="geometry" />
        </mxCell>
        <mxCell id="NFkFAfJ5zQV4zD1CImH5-76" value="&lt;b style=&quot;border-color: var(--border-color); font-size: medium;&quot;&gt;disposer&lt;/b&gt;" style="html=1;strokeColor=none;fillColor=none;align=center;verticalAlign=middle;rotatable=0;whiteSpace=wrap;" parent="NFkFAfJ5zQV4zD1CImH5-75" vertex="1">
          <mxGeometry x="6.19047619047619" width="123.80952380952382" height="23.52941176470588" as="geometry" />
        </mxCell>
        <mxCell id="NFkFAfJ5zQV4zD1CImH5-77" value="" style="line;strokeWidth=1;fillColor=none;rotatable=0;labelPosition=right;points=[];portConstraint=eastwest;dashed=0;resizeWidth=1;" parent="NFkFAfJ5zQV4zD1CImH5-75" vertex="1">
          <mxGeometry x="6.19047619047619" y="23.529411764705884" width="111.42857142857142" height="6.666666666666666" as="geometry" />
        </mxCell>
        <mxCell id="NFkFAfJ5zQV4zD1CImH5-78" value="Nb_logiciel" style="text;html=1;align=center;verticalAlign=middle;rotatable=0;fillColor=none;strokeColor=none;whiteSpace=wrap;" parent="NFkFAfJ5zQV4zD1CImH5-75" vertex="1">
          <mxGeometry y="30.192941176470587" width="123.80874999999999" height="20" as="geometry" />
        </mxCell>
        <mxCell id="cgGnD4WlNKiAV_FmcP1Z-47" value="1,1" style="text;html=1;align=center;verticalAlign=middle;resizable=0;points=[];autosize=1;strokeColor=none;fillColor=none;fontColor=#FF0000;" parent="1" vertex="1">
          <mxGeometry x="-584" y="-290" width="40" height="30" as="geometry" />
        </mxCell>
        <mxCell id="HdJB19JEEtUbEPR0QAvj-11" value="&lt;font color=&quot;#ff0000&quot;&gt;1,1&lt;/font&gt;" style="text;html=1;align=center;verticalAlign=middle;resizable=0;points=[];autosize=1;strokeColor=none;fillColor=none;" vertex="1" parent="1">
          <mxGeometry x="414" y="209.99999999999997" width="40" height="30" as="geometry" />
        </mxCell>
        <mxCell id="HdJB19JEEtUbEPR0QAvj-12" value="&lt;font color=&quot;#ff0000&quot;&gt;1,1&lt;/font&gt;" style="text;html=1;align=center;verticalAlign=middle;resizable=0;points=[];autosize=1;strokeColor=none;fillColor=none;" vertex="1" parent="1">
          <mxGeometry x="340" y="169.99999999999997" width="40" height="30" as="geometry" />
        </mxCell>
        <mxCell id="HdJB19JEEtUbEPR0QAvj-13" value="0,N" style="text;html=1;align=center;verticalAlign=middle;resizable=0;points=[];autosize=1;strokeColor=none;fillColor=none;fontColor=#FF0000;" vertex="1" parent="1">
          <mxGeometry x="1035" y="-630" width="40" height="30" as="geometry" />
        </mxCell>
        <mxCell id="HdJB19JEEtUbEPR0QAvj-14" value="1,N" style="text;html=1;align=center;verticalAlign=middle;resizable=0;points=[];autosize=1;strokeColor=none;fillColor=none;fontColor=#FF0000;" vertex="1" parent="1">
          <mxGeometry x="30" y="180" width="40" height="30" as="geometry" />
        </mxCell>
      </root>
    </mxGraphModel>
  </diagram>
</mxfile>
